<svg width="36" height="36" viewBox="0 0 36 36" fill="none" xmlns="http://www.w3.org/2000/svg">
<path d="M13.4883 26.1095V13.4095C13.4883 12.9095 13.6383 12.422 13.9133 12.0095L17.3258 6.93448C17.8633 6.12198 19.2008 5.54698 20.3383 5.97198C21.5633 6.38448 22.3758 7.75948 22.1133 8.98448L21.4633 13.072C21.4133 13.447 21.5133 13.7845 21.7258 14.047C21.9383 14.2845 22.2508 14.4345 22.5883 14.4345H27.7258C28.7133 14.4345 29.5633 14.8345 30.0633 15.5345C30.5383 16.2095 30.6258 17.0845 30.3133 17.972L27.2383 27.3345C26.8508 28.8845 25.1633 30.147 23.4883 30.147H18.6133C17.7758 30.147 16.6008 29.8595 16.0633 29.322L14.4633 28.0845C13.8508 27.622 13.4883 26.8845 13.4883 26.1095Z" fill="#60BF26"/>
<path d="M9.5125 10.9766H8.225C6.2875 10.9766 5.5 11.7266 5.5 13.5766V26.1516C5.5 28.0016 6.2875 28.7516 8.225 28.7516H9.5125C11.45 28.7516 12.2375 28.0016 12.2375 26.1516V13.5766C12.2375 11.7266 11.45 10.9766 9.5125 10.9766Z" fill="#60BF26"/>
</svg>
