<svg width="1863" height="735" viewBox="0 0 1863 735" fill="none" xmlns="http://www.w3.org/2000/svg">
<path d="M500.941 734.68C478.441 734.68 459.794 728.053 445 714.749C430.205 701.187 422.808 684.646 422.808 665.074C422.808 645.502 430.205 628.859 445 615.554C459.64 602.095 478.339 595.417 500.941 595.417C514.451 595.417 526.986 598.294 538.441 604.047C549.896 609.8 558.835 617.609 565.256 627.472L543.886 638.619C539.879 631.992 534.075 626.701 526.472 622.797C518.869 618.893 510.342 616.941 500.941 616.941C485.119 616.941 472.174 621.461 462.054 630.554C452.243 639.492 447.311 651.05 447.311 665.074C447.311 679.098 452.243 690.656 462.054 699.594C472.174 708.687 485.119 713.207 500.941 713.207C510.342 713.207 518.869 711.255 526.575 707.351C534.28 703.447 540.033 698.156 543.886 691.529L565.256 702.471C559.143 712.18 550.256 720.04 538.544 726.05C527.294 731.803 514.76 734.68 500.941 734.68Z" fill="#3A3D40"/>
<path d="M708.32 732.217H681.813L671.334 705.145H607.687L597.208 732.217H570.496L624.742 597.886H654.228L708.269 732.217H708.32ZM639.536 623.827L615.804 684.443H663.218L639.485 623.827H639.536Z" fill="#3A3D40"/>
<path d="M701.899 597.886H810.853V618.999H768.782V732.217H744.227V618.999H701.95V597.886H701.899Z" fill="#3A3D40"/>
<path d="M970.613 687.524H987.719V708.072H970.613V732.267H945.853V708.072H872.395V687.524L923.867 597.936H950.579L899.107 687.524H945.904V652.593H970.665V687.524H970.613Z" fill="#3A3D40"/>
<path d="M1108.59 734.68C1092.51 734.68 1079.05 729.8 1068.22 720.091C1057.53 710.228 1052.19 698.259 1052.19 684.184C1052.19 670.109 1057.53 657.883 1068.22 648.328C1079.05 638.619 1092.51 633.739 1108.59 633.739C1118.97 633.739 1128.47 636 1137 640.469C1145.53 644.938 1151.95 650.948 1156.21 658.499L1136.33 668.876C1133.92 664.253 1130.27 660.657 1125.34 658.037C1120.41 655.417 1114.76 654.082 1108.33 654.082C1098.93 654.082 1091.02 656.958 1084.6 662.712C1078.34 668.619 1075.2 675.76 1075.2 684.184C1075.2 692.609 1078.34 699.8 1084.6 705.657C1091.02 711.41 1098.93 714.287 1108.33 714.287C1114.6 714.287 1120.25 713.002 1125.34 710.331C1130.37 707.711 1134.23 704.116 1136.74 699.492L1156.62 709.663C1152.05 717.317 1145.48 723.43 1136.85 727.9C1128.21 732.369 1118.81 734.629 1108.54 734.629L1108.59 734.68Z" fill="#3A3D40"/>
<path d="M1274.77 693.074H1189.76C1191.45 700.215 1195.35 705.814 1201.42 709.77C1207.48 713.725 1214.98 715.728 1223.97 715.728C1236.09 715.728 1245.23 711.773 1251.5 703.811L1270.51 713.776C1260.13 727.698 1244.52 734.684 1223.71 734.684C1206.5 734.684 1192.43 729.958 1181.64 720.506C1170.95 710.9 1165.61 698.828 1165.61 684.239C1165.61 669.65 1170.9 658.092 1181.43 648.383C1191.81 638.674 1205.37 633.794 1222.02 633.794C1237.53 633.794 1250.37 638.725 1260.49 648.588C1270.61 658.451 1275.65 670.42 1275.65 684.496C1275.65 687.064 1275.34 689.941 1274.77 693.126V693.074ZM1189.55 676.174H1252.38C1250.78 668.623 1247.29 662.818 1241.79 658.708C1236.3 654.599 1229.67 652.544 1221.81 652.544C1213.28 652.544 1206.14 654.65 1200.44 658.862C1194.74 663.075 1191.09 668.828 1189.55 676.122V676.174Z" fill="#3A3D40"/>
<path d="M1319 636.257V652.387C1324.86 640.469 1335.8 634.562 1351.88 634.562V657.01C1343.2 656.496 1335.49 658.397 1328.81 662.763C1322.24 666.976 1319 674.013 1319 683.876V732.215H1295.94V636.257H1319Z" fill="#3A3D40"/>
<path d="M1431.35 636.26V656.191H1404.84V702.218C1404.84 706.174 1405.82 709.051 1407.82 710.746C1409.82 712.492 1412.75 713.417 1416.71 713.622C1420.61 713.828 1425.49 713.776 1431.35 713.52V732.115C1413.68 734.016 1401.04 732.681 1393.33 728.006C1385.63 723.331 1381.77 714.753 1381.77 702.218V656.191H1362.1V636.26H1381.77V615.558L1404.84 609.394V636.26H1431.35Z" fill="#3A3D40"/>
<path d="M1474.09 618.021C1471.26 620.59 1467.82 621.874 1463.81 621.874C1459.81 621.874 1456.31 620.59 1453.33 618.021C1450.51 615.35 1449.07 612.216 1449.07 608.621C1449.07 605.025 1450.51 601.994 1453.33 599.425C1456.16 596.754 1459.65 595.367 1463.81 595.367C1467.97 595.367 1471.42 596.703 1474.29 599.425C1477.12 601.994 1478.56 605.076 1478.56 608.621C1478.56 612.165 1477.07 615.35 1474.09 618.021ZM1475.37 732.216H1452.31V636.257H1475.37V732.216Z" fill="#3A3D40"/>
<path d="M1532.8 636.255H1591.31V732.214H1568.25V656.238H1532.8V732.214H1509.74V656.238H1493.5V636.307H1509.74V634.406C1509.74 608.464 1525.82 595.468 1558.02 595.468C1565.83 595.468 1573.74 596.29 1581.76 597.985V616.992C1573.79 615.964 1565.88 615.451 1558.02 615.451C1549.34 615.451 1542.97 616.889 1538.91 619.766C1534.86 622.642 1532.8 627.522 1532.8 634.457V636.358V636.255Z" fill="#3A3D40"/>
<path d="M1721.23 693.074H1636.21C1637.9 700.215 1641.81 705.814 1647.87 709.77C1653.93 713.725 1661.43 715.728 1670.42 715.728C1682.54 715.728 1691.69 711.773 1697.95 703.811L1716.96 713.776C1706.59 727.698 1690.97 734.684 1670.16 734.684C1652.96 734.684 1638.93 729.958 1628.09 720.506C1617.41 710.9 1612.06 698.828 1612.06 684.239C1612.06 669.65 1617.36 658.092 1627.89 648.383C1638.26 638.674 1651.83 633.794 1668.47 633.794C1683.98 633.794 1696.82 638.725 1706.89 648.588C1717.01 658.451 1722.05 670.42 1722.05 684.496C1722.05 687.064 1721.74 689.941 1721.17 693.126L1721.23 693.074ZM1636 676.174H1698.78C1697.18 668.623 1693.69 662.818 1688.19 658.708C1682.7 654.599 1676.07 652.544 1668.21 652.544C1659.68 652.544 1652.54 654.65 1646.84 658.862C1641.14 663.075 1637.49 668.828 1635.95 676.122L1636 676.174Z" fill="#3A3D40"/>
<path d="M1826.28 649.872V597.886H1849.34V732.217H1826.28V718.399C1817.59 729.289 1805.11 734.683 1788.88 734.683C1774.19 734.683 1761.7 729.803 1751.28 720.094C1740.9 710.385 1735.66 698.416 1735.66 684.187C1735.66 669.957 1740.85 658.039 1751.28 648.331C1761.7 638.622 1774.19 633.742 1788.88 633.742C1805.11 633.742 1817.59 639.136 1826.28 649.872ZM1768.38 706.276C1774.8 712.029 1782.82 714.906 1792.53 714.906C1802.24 714.906 1810.25 712.029 1816.67 706.276C1823.09 700.419 1826.28 693.022 1826.28 684.187C1826.28 675.351 1823.09 668.057 1816.67 662.303C1810.25 656.396 1802.24 653.468 1792.53 653.468C1782.82 653.468 1774.8 656.396 1768.38 662.303C1761.96 668.057 1758.78 675.351 1758.78 684.187C1758.78 693.022 1761.96 700.265 1768.38 706.276Z" fill="#3A3D40"/>
<path d="M114.026 310.527V398.626H312.98V508.043H0.345215V10.6826H309.436V120.1H114.026V202.548H291.662V310.578H114.026V310.527Z" fill="#3A3D40"/>
<path d="M610.718 518.006C536.335 518.006 474.537 493.4 425.274 444.086C376.473 394.822 352.072 333.23 352.072 259.309C352.072 185.388 376.473 124.053 425.274 75.2521C474.075 25.5777 535.873 0.714844 610.718 0.714844C655.255 0.714844 696.454 11.0401 734.365 31.6393C772.275 52.2385 802.121 80.3377 823.902 115.834L725.837 172.7C714.947 153.282 699.433 138.231 679.296 127.598C659.159 116.913 636.3 111.622 610.718 111.622C566.181 111.622 530.89 125.132 504.845 152.101C478.801 178.659 465.753 214.412 465.753 259.412C465.753 304.412 478.801 340.165 504.845 366.723C530.89 393.743 566.181 407.202 610.718 407.202C635.838 407.202 658.697 401.757 679.296 390.867C699.896 379.976 715.409 365.079 725.837 346.124L823.902 402.99C802.583 438.538 772.994 466.585 735.084 487.185C697.173 507.784 655.718 518.109 610.718 518.109V518.006Z" fill="#3A3D40"/>
<path d="M1107.46 518.006C1033.08 518.006 971.281 493.4 922.018 444.086C873.217 394.822 848.816 333.23 848.816 259.309C848.816 185.388 873.217 124.053 922.018 75.2521C970.768 25.5777 1032.57 0.714844 1107.46 0.714844C1152 0.714844 1193.2 11.0401 1231.11 31.6393C1269.02 52.2385 1298.87 80.3377 1320.65 115.834L1222.58 172.7C1211.69 153.282 1196.18 138.231 1176.04 127.598C1155.9 116.913 1133.04 111.622 1107.46 111.622C1062.92 111.622 1027.63 125.132 1001.59 152.101C975.545 178.659 962.497 214.412 962.497 259.412C962.497 304.412 975.545 340.165 1001.59 366.723C1027.63 393.743 1062.92 407.202 1107.46 407.202C1132.58 407.202 1155.44 401.757 1176.04 390.867C1196.64 379.976 1212.15 365.079 1222.58 346.124L1320.65 402.99C1299.33 438.538 1269.74 466.585 1231.83 487.185C1193.92 507.784 1152.46 518.109 1107.46 518.109V518.006Z" fill="#58903E"/>
<path d="M1787.49 75.3035C1737.25 25.5777 1676.12 0.714844 1604.15 0.714844C1532.19 0.714844 1471 25.5777 1420.82 75.3035C1409.98 86.0397 1400.27 97.341 1391.74 109.156C1390.51 110.851 1389.33 112.546 1388.15 114.293C1368.01 143.882 1355.01 176.707 1349.1 212.82C1373.66 229.361 1399.24 243.642 1425.75 252.323C1432.48 254.583 1439.26 256.433 1446.14 257.871C1439.16 259.361 1432.32 261.21 1425.44 263.522C1398.93 272.254 1373.25 286.586 1348.69 303.23C1354.24 339.549 1366.93 372.579 1386.81 402.322C1387.94 404.069 1389.12 405.764 1390.35 407.51C1399.19 420.096 1409.36 432.014 1420.82 443.418C1471 493.144 1532.08 518.006 1604.15 518.006C1676.23 518.006 1737.25 493.144 1787.49 443.418C1837.73 393.692 1862.85 332.357 1862.85 259.412C1862.85 186.467 1837.73 125.081 1787.49 75.3548V75.3035ZM1707.2 365.901C1679.72 393.435 1645.4 407.099 1604.21 407.099C1563.01 407.099 1527.92 393.384 1500.44 365.901C1493.45 358.915 1487.39 351.466 1482.2 343.453C1481.12 341.809 1480.05 340.114 1479.12 338.367C1501.42 323.881 1524.22 310.114 1547.65 298.042C1583.2 279.703 1620.08 265.217 1658.04 257.922L1658.14 257.82H1658.04C1622.03 250.833 1587.05 237.426 1553.2 220.474C1528.28 207.94 1504.03 193.505 1480.35 178.094C1481.43 176.399 1482.51 174.755 1483.59 173.06C1488.42 165.817 1494.07 159.036 1500.44 152.666C1527.92 125.132 1562.49 111.468 1604.21 111.468C1645.92 111.468 1679.77 125.183 1707.2 152.666C1735.15 180.611 1749.12 216.107 1749.12 259.258C1749.12 302.408 1735.15 337.853 1707.2 365.798V365.901ZM1657.99 257.82C1621.98 250.885 1587 237.529 1553.14 220.525C1528.23 207.991 1503.98 193.556 1480.3 178.145C1466.23 201.108 1459.19 228.128 1459.19 259.361C1459.19 290.593 1465.82 315.919 1479.07 338.367C1501.36 323.881 1524.17 310.114 1547.6 298.042C1583.14 279.703 1620.03 265.217 1657.99 257.922L1658.09 257.82H1657.99Z" fill="#3A3D40"/>
<path d="M1658.04 257.922L1657.94 258.025C1619.98 265.268 1583.14 279.806 1547.54 298.144C1524.12 310.216 1501.31 323.932 1479.02 338.47C1476.4 340.113 1473.78 341.809 1471.21 343.555C1462.22 349.514 1453.28 355.627 1444.45 361.74C1437.82 366.363 1431.3 371.038 1424.77 375.661C1412.24 384.497 1399.6 393.538 1386.81 402.425C1366.93 372.733 1354.24 339.651 1348.69 303.333C1373.25 286.689 1398.93 272.357 1425.44 263.624C1432.32 261.312 1439.16 259.463 1446.14 257.973C1439.26 256.535 1432.48 254.686 1425.75 252.426C1399.24 243.744 1373.66 229.463 1349.1 212.922C1355.01 176.758 1367.96 143.984 1388.15 114.396C1400.47 122.974 1412.65 131.707 1424.77 140.389C1432.68 145.936 1440.59 151.587 1448.61 157.084C1456.57 162.58 1464.53 167.974 1472.6 173.316C1475.17 174.96 1477.68 176.655 1480.2 178.351C1503.88 193.761 1528.13 208.196 1553.04 220.731C1586.89 237.682 1621.88 251.09 1657.89 258.025H1657.99L1658.04 257.922Z" fill="#58903E"/>
</svg>
