<svg width="1102" height="1742" viewBox="0 0 1102 1742" fill="none" xmlns="http://www.w3.org/2000/svg">
<path fill-rule="evenodd" clip-rule="evenodd" d="M346.13 1522.41C344.64 1524.93 343.972 1528.01 343.972 1531.61C343.972 1535.2 344.692 1538.28 346.13 1540.96C347.568 1543.47 349.572 1545.48 352.14 1546.81C354.657 1548.2 357.534 1548.87 360.719 1548.87C363.493 1548.87 366.061 1548.25 368.373 1547.02C370.787 1545.78 372.791 1543.83 374.486 1541.21L384.4 1547.02C382.243 1551.13 379.161 1554.31 375 1556.62C370.941 1558.78 366.215 1559.91 360.822 1559.91C355.017 1559.91 349.829 1558.73 345.308 1556.32C340.839 1553.85 337.346 1550.46 334.777 1546.14C332.26 1541.88 330.976 1537 330.976 1531.55C330.976 1526.11 332.26 1521.18 334.777 1517.02C337.346 1512.75 340.839 1509.36 345.308 1507C349.88 1504.59 355.017 1503.4 360.822 1503.4C366.215 1503.4 370.941 1504.48 375 1506.69C379.161 1508.85 382.294 1511.98 384.4 1516.2L374.486 1522C372.791 1519.38 370.787 1517.43 368.373 1516.2C366.061 1514.96 363.493 1514.35 360.719 1514.35C357.585 1514.35 354.709 1515.07 352.14 1516.45C349.572 1517.84 347.568 1519.79 346.13 1522.46V1522.41Z" fill="#3A3D40"/>
<path fill-rule="evenodd" clip-rule="evenodd" d="M413.219 1452.96C406.13 1455.94 398.219 1457.43 389.537 1457.43C381.575 1457.43 374.126 1456.14 367.243 1453.52C360.411 1450.85 354.503 1447.1 349.418 1442.33C344.435 1437.45 340.531 1431.64 337.757 1425.06C334.931 1418.49 333.544 1411.3 333.544 1403.49C333.544 1395.68 334.931 1388.49 337.757 1381.91C340.582 1375.34 344.486 1369.64 349.572 1364.86C354.606 1359.98 360.565 1356.23 367.397 1353.61C374.178 1350.94 381.626 1349.55 389.691 1349.55C398.27 1349.55 406.13 1351.09 413.219 1354.07C420.308 1356.95 426.318 1361.26 431.146 1367.07L418.561 1378.88C414.811 1374.77 410.547 1371.74 405.821 1369.79C401.147 1367.69 396.061 1366.66 390.565 1366.66C385.068 1366.66 380.034 1367.53 375.411 1369.33C370.941 1371.13 366.986 1373.7 363.596 1376.98C360.308 1380.27 357.739 1384.17 355.787 1388.64C353.989 1393.16 353.116 1398.1 353.116 1403.49C353.116 1408.88 353.989 1413.87 355.787 1418.34C357.688 1422.8 360.308 1426.76 363.596 1430C367.037 1433.28 370.941 1435.85 375.411 1437.6C379.982 1439.45 385.068 1440.32 390.565 1440.32C396.061 1440.32 401.147 1439.29 405.821 1437.34C410.547 1435.24 414.76 1432.1 418.561 1427.89L431.146 1439.86C426.266 1445.56 420.308 1449.88 413.219 1452.91V1452.96Z" fill="#3A3D40"/>
<path fill-rule="evenodd" clip-rule="evenodd" d="M443.064 1516.81C445.479 1521.08 446.66 1526.16 446.66 1531.91C446.66 1532.48 446.66 1533.1 446.557 1533.76C446.557 1534.48 446.557 1535.15 446.455 1535.77H403.15C403.458 1537.67 404.126 1539.41 405.102 1541.01C406.592 1543.58 408.749 1545.53 411.472 1546.91C414.246 1548.3 417.431 1548.97 421.027 1548.97C424.16 1548.97 426.883 1548.51 429.4 1547.53C431.917 1546.55 434.126 1545.07 436.027 1542.96L442.962 1550.92C440.496 1553.8 437.362 1556.06 433.561 1557.6C429.811 1559.14 425.547 1559.91 420.719 1559.91C414.554 1559.91 409.212 1558.73 404.588 1556.32C400.017 1553.85 396.472 1550.46 393.904 1546.14C391.438 1541.88 390.205 1537 390.205 1531.55C390.205 1526.11 391.387 1521.18 393.801 1517.02C396.267 1512.75 399.657 1509.36 403.921 1507C408.287 1504.59 413.219 1503.4 418.715 1503.4C424.212 1503.4 428.938 1504.59 433.099 1506.9C437.311 1509.21 440.599 1512.55 443.013 1516.81H443.064Z" fill="#3A3D40"/>
<path fill-rule="evenodd" clip-rule="evenodd" d="M477.79 1506.28C481.386 1504.33 485.804 1503.4 491.146 1503.4V1515.68C490.581 1515.53 490.067 1515.48 489.605 1515.48C489.143 1515.37 488.629 1515.37 488.167 1515.37C483.286 1515.37 479.382 1516.81 476.454 1519.74C473.578 1522.57 472.139 1526.78 472.139 1532.48V1559.24H459.194V1504.02H471.523V1512.09C473.115 1509.67 475.221 1507.72 477.841 1506.28H477.79Z" fill="#3A3D40"/>
<path fill-rule="evenodd" clip-rule="evenodd" d="M463.304 1431.69L452.876 1455.99H432.841L479.999 1351.14H499.16L546.522 1455.99H526.129L515.701 1431.69H463.304Z" fill="#3A3D40"/>
<path fill-rule="evenodd" clip-rule="evenodd" d="M533.68 1547.07L537.276 1556.26C535.735 1557.5 533.886 1558.42 531.728 1559.09C529.519 1559.71 527.208 1560.01 524.896 1560.01C518.834 1560.01 514.108 1558.47 510.821 1555.34C507.482 1552.21 505.838 1547.53 505.838 1541.37V1514.81H496.745V1504.43H505.838V1491.85H518.783V1504.43H533.577V1514.81H518.783V1541.06C518.783 1543.73 519.451 1545.73 520.786 1547.17C522.173 1548.61 524.074 1549.33 526.489 1549.33C529.365 1549.33 531.78 1548.61 533.732 1547.07H533.68Z" fill="#3A3D40"/>
<path d="M560.906 1504.02H547.961V1559.24H560.906V1504.02Z" fill="#3A3D40"/>
<path fill-rule="evenodd" clip-rule="evenodd" d="M560.341 1481.57C561.933 1482.96 562.755 1484.7 562.755 1486.81C562.755 1489.12 561.985 1491.02 560.444 1492.61C558.903 1494.15 556.951 1494.93 554.433 1494.93C551.916 1494.93 550.016 1494.15 548.423 1492.61C546.882 1491.07 546.112 1489.27 546.112 1487.12C546.112 1484.96 546.882 1483.11 548.423 1481.62C549.964 1480.08 552.019 1479.36 554.433 1479.36C556.848 1479.36 558.851 1480.08 560.29 1481.52L560.341 1481.57Z" fill="#3A3D40"/>
<path fill-rule="evenodd" clip-rule="evenodd" d="M605.803 1482.49C607.858 1482.96 609.553 1483.73 610.991 1484.75L607.447 1494.46C606.471 1493.74 605.392 1493.13 604.159 1492.82C602.926 1492.41 601.642 1492.2 600.358 1492.2C597.687 1492.2 595.632 1492.92 594.245 1494.46C592.858 1495.9 592.19 1498.11 592.19 1501.09V1504.38H607.344V1514.75H592.55V1559.24H579.605V1514.75H570.512V1504.38H579.605V1500.88C579.605 1495.08 581.3 1490.46 584.639 1487.01C588.08 1483.47 593.012 1481.72 599.33 1481.72C601.591 1481.72 603.748 1481.98 605.752 1482.44L605.803 1482.49Z" fill="#3A3D40"/>
<path d="M629.382 1504.02H616.437V1559.24H629.382V1504.02Z" fill="#3A3D40"/>
<path fill-rule="evenodd" clip-rule="evenodd" d="M628.868 1481.57C630.46 1482.96 631.282 1484.7 631.282 1486.81C631.282 1489.12 630.512 1491.02 628.971 1492.61C627.429 1494.15 625.477 1494.93 622.96 1494.93C620.443 1494.93 618.543 1494.15 616.95 1492.61C615.409 1491.07 614.638 1489.27 614.638 1487.12C614.638 1484.96 615.409 1483.11 616.95 1481.62C618.543 1480.08 620.546 1479.36 622.96 1479.36C625.375 1479.36 627.378 1480.08 628.816 1481.52L628.868 1481.57Z" fill="#3A3D40"/>
<path fill-rule="evenodd" clip-rule="evenodd" d="M575.803 1367.63H541.077V1351.14H629.998V1367.63H595.272V1455.99H575.803V1367.63Z" fill="#3A3D40"/>
<path fill-rule="evenodd" clip-rule="evenodd" d="M694.724 1516.81C697.138 1521.08 698.32 1526.16 698.32 1531.91C698.32 1532.48 698.32 1533.1 698.217 1533.76C698.217 1534.48 698.217 1535.15 698.114 1535.77H654.81C655.169 1537.67 655.837 1539.41 656.762 1541.01C658.303 1543.58 660.409 1545.53 663.183 1546.91C665.957 1548.3 669.09 1548.97 672.686 1548.97C675.82 1548.97 678.594 1548.51 681.111 1547.53C683.577 1546.55 685.786 1545.07 687.738 1542.96L694.672 1550.92C692.207 1553.8 689.022 1556.06 685.272 1557.6C681.522 1559.14 677.258 1559.91 672.429 1559.91C666.316 1559.91 660.923 1558.73 656.299 1556.32C651.727 1553.85 648.183 1550.46 645.614 1546.14C643.149 1541.88 641.865 1537 641.865 1531.55C641.865 1526.11 643.046 1521.18 645.46 1517.02C647.926 1512.75 651.317 1509.36 655.632 1507C659.947 1504.59 664.878 1503.4 670.426 1503.4C675.974 1503.4 680.597 1504.59 684.809 1506.9C689.022 1509.21 692.361 1512.55 694.775 1516.81H694.724Z" fill="#3A3D40"/>
<path fill-rule="evenodd" clip-rule="evenodd" d="M751.898 1482.5H764.741V1559.24H752.412V1552.05C750.819 1554.05 748.919 1555.65 746.71 1556.88C743.063 1558.93 738.85 1560.01 734.124 1560.01C728.782 1560.01 724.004 1558.83 719.741 1556.47C715.528 1554.05 712.241 1550.77 709.826 1546.55C707.412 1542.34 706.231 1537.41 706.231 1531.66C706.231 1525.9 707.412 1520.97 709.826 1516.81C712.241 1512.6 715.528 1509.31 719.741 1506.95C724.004 1504.64 728.833 1503.45 734.124 1503.45C738.696 1503.45 742.857 1504.48 746.556 1506.54C748.559 1507.67 750.357 1509.11 751.95 1510.9V1482.55L751.898 1482.5Z" fill="#3A3D40"/>
<path fill-rule="evenodd" clip-rule="evenodd" d="M771.983 1415.71V1432.15H753.388V1455.99H734.535V1432.15H677.052V1418.69L728.679 1351.14H749.484L700.837 1415.71H735.1V1394.55H753.388V1415.71H771.983Z" fill="#3A3D40"/>
<path d="M735.1 1394.55V1415.66L734.535 1432.1V1455.94H753.388V1394.5H735.1V1394.55ZM700.837 1415.66L749.484 1351.14H728.679L677.052 1418.69V1432.15H771.983V1415.71H700.888L700.837 1415.66Z" fill="white"/>
<path d="M629.998 1351.14V1367.63H595.272V1455.99H575.803V1367.63H541.077V1351.14H629.998Z" fill="white"/>
<path d="M516.369 1416.43H459.76L454.52 1431.69H521.609L516.369 1416.43ZM499.16 1351.14H479.948L432.791 1455.94H452.825L463.201 1431.64L469.725 1416.38L489.349 1370.51L509.023 1416.38L515.547 1431.64L525.975 1455.94H546.369L499.057 1351.14H499.16Z" fill="white"/>
<path d="M418.612 1427.94L431.198 1439.91C426.318 1445.61 420.359 1449.93 413.27 1452.96C406.181 1455.94 398.27 1457.43 389.588 1457.43C381.626 1457.43 374.178 1456.14 367.294 1453.52C360.462 1450.85 354.554 1447.1 349.469 1442.33C344.486 1437.45 340.582 1431.64 337.808 1425.06C334.983 1418.49 333.596 1411.3 333.596 1403.49C333.596 1395.68 334.983 1388.49 337.808 1381.91C340.633 1375.34 344.537 1369.64 349.623 1364.86C354.657 1359.98 360.616 1356.23 367.448 1353.61C374.229 1350.94 381.678 1349.55 389.743 1349.55C398.321 1349.55 406.181 1351.09 413.27 1354.07C420.359 1356.95 426.369 1361.26 431.198 1367.07L418.612 1378.88C414.862 1374.77 410.599 1371.74 405.873 1369.79C401.198 1367.69 396.112 1366.66 390.616 1366.66C385.119 1366.66 380.085 1367.53 375.462 1369.33C370.993 1371.13 367.037 1373.7 363.647 1376.98C360.359 1380.27 357.791 1384.17 355.839 1388.64C354.041 1393.16 353.167 1398.1 353.167 1403.49C353.167 1408.88 354.041 1413.87 355.839 1418.34C357.739 1422.8 360.359 1426.76 363.647 1430C367.089 1433.28 370.993 1435.85 375.462 1437.6C380.034 1439.45 385.119 1440.32 390.616 1440.32C396.112 1440.32 401.198 1439.29 405.873 1437.34C410.599 1435.24 414.811 1432.1 418.612 1427.89V1427.94Z" fill="white"/>
<path d="M751.898 1482.5V1516.81L752.926 1531.5L752.412 1546.19V1559.24H764.741V1482.5H751.898ZM755.186 1515.68C754.261 1513.83 753.131 1512.24 751.898 1510.8C750.357 1509 748.559 1507.56 746.504 1506.43C742.857 1504.38 738.696 1503.35 734.073 1503.35C728.731 1503.35 723.953 1504.53 719.69 1506.85C715.477 1509.16 712.19 1512.5 709.775 1516.71C707.361 1520.92 706.179 1525.85 706.179 1531.55C706.179 1537.26 707.361 1542.24 709.775 1546.45C712.19 1550.66 715.477 1553.95 719.69 1556.37C723.953 1558.73 728.782 1559.91 734.073 1559.91C738.799 1559.91 743.011 1558.88 746.659 1556.78C748.816 1555.54 750.768 1553.95 752.361 1551.95C753.439 1550.61 754.415 1549.12 755.237 1547.48C757.343 1543.27 758.371 1537.92 758.371 1531.5C758.371 1525.08 757.343 1519.69 755.186 1515.58V1515.68ZM749.792 1540.8C748.302 1543.42 746.35 1545.42 743.885 1546.81C741.47 1548.2 738.696 1548.87 735.614 1548.87C732.532 1548.87 729.758 1548.2 727.241 1546.81C724.827 1545.42 722.874 1543.42 721.385 1540.8C719.895 1538.18 719.227 1535.1 719.227 1531.55C719.227 1528.01 719.946 1524.88 721.385 1522.36C722.926 1519.69 724.827 1517.74 727.241 1516.35C729.707 1514.96 732.532 1514.24 735.614 1514.24C738.696 1514.24 741.47 1514.96 743.885 1516.35C746.35 1517.74 748.302 1519.69 749.792 1522.36C751.333 1524.88 752.052 1527.96 752.052 1531.55C752.052 1535.15 751.333 1538.18 749.792 1540.8Z" fill="white"/>
<path d="M694.724 1516.81C692.309 1512.55 688.97 1509.21 684.758 1506.9C680.546 1504.59 675.768 1503.4 670.375 1503.4C664.981 1503.4 659.895 1504.59 655.58 1507C651.316 1509.41 647.926 1512.75 645.409 1517.02C642.995 1521.23 641.813 1526.11 641.813 1531.55C641.813 1537 643.046 1541.88 645.563 1546.14C648.08 1550.41 651.676 1553.8 656.248 1556.32C660.82 1558.73 666.265 1559.91 672.378 1559.91C677.207 1559.91 681.47 1559.14 685.22 1557.6C688.97 1556.06 692.155 1553.8 694.621 1550.92L687.686 1542.96C685.734 1545.01 683.525 1546.55 681.059 1547.53C678.594 1548.51 675.768 1548.97 672.635 1548.97C669.039 1548.97 665.905 1548.25 663.131 1546.91C660.357 1545.53 658.251 1543.58 656.71 1541.01C655.786 1539.41 655.118 1537.67 654.758 1535.77H698.063C698.166 1535.15 698.166 1534.48 698.166 1533.76C698.268 1533.1 698.268 1532.48 698.268 1531.91C698.268 1526.16 697.087 1521.08 694.672 1516.81H694.724ZM654.656 1527.19C654.912 1525.13 655.529 1523.23 656.402 1521.64C657.789 1519.17 659.638 1517.22 662.001 1515.84C664.416 1514.45 667.19 1513.78 670.375 1513.78C673.559 1513.78 676.231 1514.45 678.542 1515.84C680.957 1517.22 682.857 1519.12 684.244 1521.54C685.22 1523.23 685.837 1525.13 686.094 1527.24H654.707L654.656 1527.19Z" fill="white"/>
<path d="M628.868 1481.57C627.378 1480.13 625.426 1479.42 623.012 1479.42C620.597 1479.42 618.594 1480.13 617.002 1481.68C615.46 1483.17 614.69 1484.96 614.69 1487.17C614.69 1489.38 615.46 1491.13 617.002 1492.67C618.594 1494.21 620.597 1494.98 623.012 1494.98C625.426 1494.98 627.481 1494.21 629.022 1492.67C630.563 1491.08 631.334 1489.18 631.334 1486.86C631.334 1484.71 630.512 1482.96 628.919 1481.62L628.868 1481.57ZM616.436 1504.02V1559.24H629.382V1504.02H616.436ZM570.512 1504.43V1514.81H607.344V1504.43H570.512ZM605.803 1482.5C603.8 1481.98 601.642 1481.78 599.382 1481.78C593.063 1481.78 588.132 1483.52 584.69 1487.07C581.3 1490.51 579.656 1495.13 579.656 1500.94V1559.29H592.601V1513.16L592.19 1507.36V1501.14C592.19 1498.16 592.858 1495.96 594.245 1494.52C595.632 1492.98 597.687 1492.26 600.358 1492.26C601.642 1492.26 602.926 1492.46 604.159 1492.87C605.392 1493.18 606.471 1493.75 607.447 1494.52L610.991 1484.81C609.604 1483.78 607.858 1483.01 605.803 1482.55V1482.5Z" fill="white"/>
<path d="M560.341 1481.57C558.851 1480.13 556.899 1479.42 554.485 1479.42C552.07 1479.42 550.067 1480.13 548.475 1481.68C546.933 1483.17 546.163 1484.96 546.163 1487.17C546.163 1489.38 546.933 1491.13 548.475 1492.67C550.016 1494.21 552.07 1494.98 554.485 1494.98C556.899 1494.98 558.954 1494.21 560.495 1492.67C562.036 1491.08 562.807 1489.18 562.807 1486.86C562.807 1484.71 561.985 1482.96 560.392 1481.62L560.341 1481.57ZM547.91 1504.02V1559.24H560.855V1504.02H547.91Z" fill="white"/>
<path d="M496.745 1504.38V1514.75H533.577V1504.38H496.745ZM533.68 1547.01C531.728 1548.55 529.314 1549.27 526.437 1549.27C524.023 1549.27 522.122 1548.55 520.735 1547.12C519.399 1545.68 518.732 1543.67 518.732 1541V1491.79H505.787V1541.31C505.787 1547.48 507.43 1552.15 510.769 1555.28C514.057 1558.42 518.732 1559.96 524.845 1559.96C527.156 1559.96 529.468 1559.65 531.677 1559.03C533.834 1558.42 535.735 1557.49 537.225 1556.21L533.629 1547.01H533.68Z" fill="white"/>
<path d="M491.094 1503.4V1515.68C490.529 1515.53 490.016 1515.48 489.553 1515.48C489.091 1515.37 488.577 1515.37 488.115 1515.37C483.235 1515.37 479.331 1516.81 476.403 1519.74C473.526 1522.57 472.088 1526.78 472.088 1532.48V1559.24H459.143V1504.02H471.471V1512.09C473.064 1509.67 475.17 1507.72 477.79 1506.28C481.386 1504.33 485.803 1503.4 491.146 1503.4H491.094Z" fill="white"/>
<path d="M443.064 1516.81C440.65 1512.55 437.362 1509.21 433.15 1506.9C428.938 1504.59 424.16 1503.4 418.767 1503.4C413.373 1503.4 408.339 1504.59 403.972 1507C399.708 1509.41 396.318 1512.75 393.852 1517.02C391.438 1521.23 390.256 1526.11 390.256 1531.55C390.256 1537 391.489 1541.88 393.955 1546.14C396.524 1550.41 400.068 1553.8 404.64 1556.32C409.263 1558.73 414.657 1559.91 420.77 1559.91C425.599 1559.91 429.862 1559.14 433.612 1557.6C437.362 1556.06 440.547 1553.8 443.013 1550.92L436.078 1542.96C434.177 1545.01 431.969 1546.55 429.451 1547.53C426.934 1548.51 424.212 1548.97 421.078 1548.97C417.482 1548.97 414.297 1548.25 411.523 1546.91C408.801 1545.53 406.643 1543.58 405.154 1541.01C404.178 1539.41 403.51 1537.67 403.202 1535.77H446.506C446.609 1535.15 446.609 1534.48 446.609 1533.76C446.609 1533.1 446.712 1532.48 446.712 1531.91C446.712 1526.16 445.53 1521.08 443.116 1516.81H443.064ZM403.048 1527.19C403.304 1525.13 403.921 1523.23 404.794 1521.64C406.181 1519.17 408.03 1517.22 410.342 1515.84C412.756 1514.45 415.582 1513.78 418.715 1513.78C421.849 1513.78 424.571 1514.45 426.883 1515.84C429.297 1517.22 431.198 1519.12 432.585 1521.54C433.561 1523.23 434.126 1525.13 434.434 1527.24H403.048V1527.19Z" fill="white"/>
<path d="M374.486 1541.26L384.4 1547.07C382.243 1551.18 379.161 1554.36 375 1556.67C370.941 1558.83 366.215 1559.96 360.822 1559.96C355.017 1559.96 349.829 1558.78 345.308 1556.37C340.839 1553.9 337.346 1550.51 334.777 1546.19C332.26 1541.93 330.976 1537.05 330.976 1531.61C330.976 1526.16 332.26 1521.23 334.777 1517.07C337.346 1512.8 340.839 1509.41 345.308 1507.05C349.88 1504.64 355.017 1503.46 360.822 1503.46C366.215 1503.46 370.941 1504.53 375 1506.74C379.161 1508.9 382.294 1512.03 384.4 1516.25L374.486 1522.05C372.791 1519.43 370.787 1517.48 368.373 1516.25C366.061 1515.01 363.493 1514.4 360.719 1514.4C357.585 1514.4 354.709 1515.12 352.14 1516.5C349.572 1517.89 347.568 1519.84 346.13 1522.51C344.64 1525.03 343.972 1528.11 343.972 1531.71C343.972 1535.3 344.692 1538.39 346.13 1541.06C347.568 1543.57 349.572 1545.58 352.14 1546.91C354.657 1548.3 357.534 1548.97 360.719 1548.97C363.493 1548.97 366.061 1548.35 368.373 1547.12C370.787 1545.89 372.791 1543.93 374.486 1541.31V1541.26Z" fill="white"/>
<path fill-rule="evenodd" clip-rule="evenodd" d="M1027.34 791.418C969.448 660.631 884.637 540.169 797.668 423.56C702.378 295.753 612.738 169.589 563.423 32.3298L551.916 0.37793L539.587 36.1825C485.547 177.757 393.081 302.02 303.647 422.225C216.319 539.604 133.357 657.6 71.1997 790.545L71.4566 790.699C23.837 900.321 0.720703 1009.38 0.720703 1123.83C0.720703 1365.22 100.84 1510.9 184.881 1590.57C285.925 1686.38 419.485 1741.34 551.351 1741.34C683.217 1741.34 816.726 1686.38 917.77 1590.57C1001.76 1510.85 1101.93 1365.22 1101.93 1123.83C1101.93 1004.4 1072.96 894.671 1027.29 791.366L1027.34 791.418ZM735.1 1415.71V1394.6H753.388V1415.71H771.932V1432.15H753.388V1455.99H734.535V1432.15H677.052V1418.69L728.679 1351.14H749.483L700.836 1415.66H735.1V1415.71ZM746.761 1556.88C743.114 1558.93 738.901 1560.01 734.175 1560.01C728.833 1560.01 724.055 1558.83 719.792 1556.46C715.58 1554.05 712.292 1550.76 709.878 1546.55C707.463 1542.34 706.282 1537.41 706.282 1531.65C706.282 1525.9 707.463 1520.97 709.878 1516.81C712.292 1512.6 715.58 1509.31 719.792 1506.94C724.055 1504.63 728.884 1503.45 734.175 1503.45C738.747 1503.45 742.908 1504.48 746.607 1506.53C748.61 1507.66 750.408 1509.1 752.001 1510.9V1482.54H764.843V1559.29H752.514V1552.1C750.922 1554.1 749.021 1555.69 746.812 1556.93L746.761 1556.88ZM684.758 1506.89C688.97 1509.2 692.309 1512.54 694.723 1516.81C697.138 1521.07 698.319 1526.16 698.319 1531.91C698.319 1532.48 698.319 1533.09 698.217 1533.76C698.217 1534.48 698.217 1535.15 698.114 1535.76H654.809C655.169 1537.66 655.837 1539.41 656.761 1541C658.303 1543.57 660.409 1545.52 663.183 1546.91C665.957 1548.3 669.09 1548.97 672.686 1548.97C675.82 1548.97 678.593 1548.5 681.111 1547.53C683.576 1546.55 685.785 1545.06 687.737 1542.95L694.672 1550.92C692.206 1553.79 689.021 1556.05 685.271 1557.6C681.521 1559.14 677.258 1559.91 672.429 1559.91C666.316 1559.91 660.922 1558.73 656.299 1556.31C651.727 1553.85 648.183 1550.45 645.614 1546.14C643.148 1541.88 641.864 1537 641.864 1531.55C641.864 1526.11 643.046 1521.17 645.46 1517.01C647.926 1512.75 651.316 1509.36 655.631 1507C659.946 1504.58 664.878 1503.4 670.426 1503.4C675.974 1503.4 680.597 1504.58 684.809 1506.89H684.758ZM477.79 1506.28C481.386 1504.32 485.803 1503.4 491.146 1503.4V1515.68C490.581 1515.52 490.067 1515.47 489.605 1515.47C489.142 1515.37 488.629 1515.37 488.166 1515.37C483.286 1515.37 479.382 1516.81 476.454 1519.74C473.578 1522.56 472.139 1526.77 472.139 1532.48V1559.24H459.194V1504.02H471.523V1512.08C473.115 1509.67 475.221 1507.72 477.841 1506.28H477.79ZM533.577 1504.43V1514.8H518.783V1541.05C518.783 1543.73 519.451 1545.73 520.786 1547.17C522.173 1548.61 524.074 1549.32 526.488 1549.32C529.365 1549.32 531.779 1548.61 533.731 1547.06L537.327 1556.26C535.786 1557.49 533.937 1558.42 531.779 1559.08C529.57 1559.7 527.259 1560.01 524.947 1560.01C518.885 1560.01 514.159 1558.47 510.872 1555.33C507.533 1552.2 505.889 1547.53 505.889 1541.36V1514.8H496.797V1504.43H505.889V1491.84H518.834V1504.43H533.629H533.577ZM560.495 1492.61C558.954 1494.15 557.002 1494.92 554.485 1494.92C551.967 1494.92 550.067 1494.15 548.474 1492.61C546.933 1491.07 546.163 1489.27 546.163 1487.12C546.163 1484.96 546.933 1483.11 548.474 1481.62C550.015 1480.08 552.07 1479.36 554.485 1479.36C556.899 1479.36 558.902 1480.08 560.341 1481.52C561.933 1482.9 562.755 1484.65 562.755 1486.76C562.755 1489.07 561.985 1490.97 560.443 1492.56L560.495 1492.61ZM560.906 1504.02V1559.24H547.961V1504.02H560.906ZM607.344 1504.43V1514.8H592.549V1559.29H579.604V1514.8H570.512V1504.43H579.604V1500.93C579.604 1495.13 581.299 1490.51 584.639 1487.06C588.08 1483.52 593.012 1481.77 599.33 1481.77C601.59 1481.77 603.748 1482.03 605.751 1482.49C607.806 1482.96 609.501 1483.73 610.94 1484.75L607.395 1494.46C606.419 1493.74 605.34 1493.13 604.108 1492.82C602.875 1492.41 601.59 1492.2 600.306 1492.2C597.635 1492.2 595.58 1492.92 594.193 1494.46C592.806 1495.9 592.138 1498.11 592.138 1501.09V1504.38H607.293L607.344 1504.43ZM616.436 1559.29V1504.07H629.381V1559.29H616.436ZM628.97 1492.66C627.429 1494.2 625.477 1494.98 622.96 1494.98C620.443 1494.98 618.542 1494.2 616.95 1492.66C615.409 1491.12 614.638 1489.32 614.638 1487.17C614.638 1485.01 615.409 1483.16 616.95 1481.67C618.542 1480.13 620.546 1479.41 622.96 1479.41C625.375 1479.41 627.378 1480.13 628.816 1481.57C630.409 1482.95 631.231 1484.7 631.231 1486.81C631.231 1489.12 630.46 1491.02 628.919 1492.61L628.97 1492.66ZM629.998 1367.68H595.221V1456.04H575.752V1367.68H541.026V1351.24H629.946V1367.68H629.998ZM546.471 1456.04H526.077L515.649 1431.74H463.252L452.876 1456.04H432.841L479.999 1351.24H499.211L546.522 1456.04H546.471ZM433.15 1506.94C437.362 1509.26 440.65 1512.6 443.064 1516.86C445.478 1521.12 446.66 1526.21 446.66 1531.96C446.66 1532.53 446.66 1533.14 446.557 1533.81C446.557 1534.53 446.557 1535.2 446.454 1535.81H403.15C403.458 1537.72 404.126 1539.46 405.102 1541.05C406.592 1543.62 408.749 1545.57 411.472 1546.96C414.246 1548.35 417.431 1549.02 421.026 1549.02C424.16 1549.02 426.883 1548.55 429.4 1547.58C431.917 1546.6 434.126 1545.11 436.026 1543.01L442.961 1550.97C440.496 1553.85 437.362 1556.11 433.561 1557.65C429.811 1559.19 425.547 1559.96 420.718 1559.96C414.554 1559.96 409.211 1558.78 404.588 1556.36C400.016 1553.9 396.472 1550.51 393.903 1546.19C391.438 1541.93 390.205 1537.05 390.205 1531.6C390.205 1526.16 391.386 1521.23 393.801 1517.06C396.266 1512.8 399.657 1509.41 403.92 1507.05C408.287 1504.63 413.218 1503.45 418.715 1503.45C424.211 1503.45 428.937 1504.63 433.098 1506.94H433.15ZM355.839 1418.43C357.739 1422.9 360.359 1426.86 363.647 1430.1C367.088 1433.38 370.992 1435.95 375.462 1437.7C380.034 1439.55 385.119 1440.42 390.616 1440.42C396.112 1440.42 401.198 1439.39 405.872 1437.44C410.598 1435.34 414.811 1432.2 418.612 1427.99L431.198 1439.96C426.318 1445.66 420.359 1449.98 413.27 1453.01C406.181 1455.99 398.27 1457.48 389.588 1457.48C381.626 1457.48 374.177 1456.19 367.294 1453.57C360.462 1450.9 354.554 1447.15 349.469 1442.37C344.486 1437.49 340.582 1431.69 337.808 1425.11C334.982 1418.54 333.595 1411.35 333.595 1403.54C333.595 1395.73 334.982 1388.54 337.808 1381.96C340.633 1375.39 344.537 1369.69 349.623 1364.91C354.657 1360.03 360.616 1356.28 367.448 1353.66C374.229 1350.99 381.677 1349.6 389.742 1349.6C398.321 1349.6 406.181 1351.14 413.27 1354.12C420.359 1357 426.369 1361.31 431.198 1367.12L418.612 1378.93C414.862 1374.82 410.598 1371.79 405.872 1369.84C401.198 1367.73 396.112 1366.71 390.616 1366.71C385.119 1366.71 380.085 1367.58 375.462 1369.38C370.992 1371.17 367.037 1373.74 363.647 1377.03C360.359 1380.32 357.791 1384.22 355.839 1388.69C354.041 1393.21 353.167 1398.14 353.167 1403.54C353.167 1408.93 354.041 1413.91 355.839 1418.38V1418.43ZM334.726 1517.12C337.294 1512.85 340.787 1509.46 345.256 1507.1C349.828 1504.68 354.965 1503.5 360.77 1503.5C366.164 1503.5 370.89 1504.58 374.948 1506.79C379.109 1508.95 382.242 1512.08 384.349 1516.29L374.434 1522.1C372.739 1519.48 370.736 1517.53 368.321 1516.29C366.01 1515.06 363.441 1514.44 360.667 1514.44C357.534 1514.44 354.657 1515.16 352.088 1516.55C349.52 1517.94 347.517 1519.89 346.078 1522.56C344.589 1525.08 343.921 1528.16 343.921 1531.76C343.921 1535.35 344.64 1538.43 346.078 1541.11C347.517 1543.62 349.52 1545.63 352.088 1546.96C354.606 1548.35 357.482 1549.02 360.667 1549.02C363.441 1549.02 366.01 1548.4 368.321 1547.17C370.736 1545.93 372.739 1543.98 374.434 1541.36L384.349 1547.17C382.191 1551.28 379.109 1554.46 374.948 1556.77C370.89 1558.93 366.164 1560.06 360.77 1560.06C354.965 1560.06 349.777 1558.88 345.256 1556.46C340.787 1554 337.294 1550.61 334.726 1546.29C332.209 1542.03 330.924 1537.15 330.924 1531.7C330.924 1526.26 332.209 1521.33 334.726 1517.17V1517.12ZM973.198 1359.1C966.725 1374.98 959.534 1390.34 951.623 1405.13C849.243 1284.15 693.182 1226.47 551.351 1226.47C409.52 1226.47 254.949 1283.59 152.518 1403.49C144.555 1388.95 137.364 1373.85 130.788 1358.28C101.662 1288.93 86.9188 1210.08 86.9188 1123.88C86.9188 1062.08 94.4188 1003.32 109.932 944.242C155.6 770.151 264.812 624.159 370.479 482.07C432.841 398.235 497.156 311.78 550.324 218.082C563.217 241.147 577.447 264.88 592.806 288.869C635.443 355.496 683.782 420.324 730.579 483.098L730.888 483.509C834.243 625.7 946.229 771.538 992.462 945.475C1008.13 1004.4 1015.68 1062.75 1015.68 1123.88C1015.68 1210.7 1001.35 1289.81 973.095 1359.05L973.198 1359.1Z" fill="#3A3D40"/>
<path d="M206.559 1053.46V1092.24H294.144V1140.43H156.474V921.389H292.603V969.573H206.559V1005.89H284.795V1053.46H206.559Z" fill="#3A3D40"/>
<path d="M425.239 1144.79C392.465 1144.79 365.291 1133.95 343.562 1112.28C322.089 1090.6 311.353 1063.47 311.353 1030.91C311.353 998.338 322.089 971.369 343.562 949.845C365.034 927.962 392.26 916.969 425.239 916.969C444.862 916.969 462.996 921.489 479.691 930.582C496.386 939.674 509.537 952.003 519.091 967.671L475.89 992.688C471.112 984.109 464.28 977.534 455.393 972.808C446.506 968.133 436.489 965.77 425.188 965.77C405.565 965.77 390.051 971.729 378.544 983.595C367.089 995.256 361.335 1011.03 361.335 1030.86C361.335 1050.68 367.089 1066.4 378.544 1078.12C390 1089.98 405.565 1095.94 425.188 1095.94C436.232 1095.94 446.301 1093.53 455.393 1088.75C464.486 1083.97 471.318 1077.4 475.89 1069.02L519.091 1094.04C509.691 1109.71 496.643 1122.04 479.999 1131.13C463.304 1140.22 445.068 1144.74 425.239 1144.74V1144.79Z" fill="#3A3D40"/>
<path d="M643.971 1144.79C611.197 1144.79 584.022 1133.95 562.293 1112.28C540.82 1090.6 530.084 1063.47 530.084 1030.91C530.084 998.338 540.82 971.369 562.293 949.845C583.765 927.962 610.991 916.969 643.971 916.969C663.594 916.969 681.727 921.489 698.422 930.582C715.117 939.674 728.268 952.003 737.823 967.671L694.621 992.688C689.844 984.109 683.011 977.534 674.125 972.808C665.238 968.133 655.169 965.77 643.919 965.77C624.296 965.77 608.782 971.729 597.276 983.595C585.82 995.256 580.067 1011.03 580.067 1030.86C580.067 1050.68 585.82 1066.4 597.276 1078.12C608.731 1089.98 624.296 1095.94 643.919 1095.94C654.964 1095.94 665.032 1093.53 674.125 1088.75C683.217 1083.97 690.049 1077.4 694.621 1069.02L737.823 1094.04C728.422 1109.71 715.374 1122.04 698.73 1131.13C682.035 1140.22 663.799 1144.74 643.971 1144.74V1144.79Z" fill="#3A3D40"/>
<path d="M943.404 1111.97C921.315 1133.85 894.397 1144.84 862.702 1144.84C831.007 1144.84 804.089 1133.9 782.001 1111.97C759.912 1090.03 748.816 1063.06 748.816 1030.96C748.816 998.85 759.86 971.83 782.001 949.895C804.141 927.96 831.007 917.019 862.702 917.019C894.397 917.019 921.315 927.96 943.404 949.895C965.493 971.83 976.588 998.799 976.588 1030.96C976.588 1063.11 965.544 1090.08 943.404 1111.97ZM798.85 1030.96C798.85 1050.17 804.911 1065.78 816.983 1077.91C829.055 1090.03 844.312 1096.04 862.651 1096.04C880.99 1096.04 895.938 1089.98 908.01 1077.91C920.287 1065.58 926.452 1049.96 926.452 1030.96C926.452 1011.95 920.287 996.333 908.01 984.004C895.887 971.933 880.784 965.871 862.651 965.871C844.517 965.871 829.055 971.933 816.983 984.004C804.911 996.076 798.85 1011.74 798.85 1030.96Z" fill="#3A3D40"/>
</svg>
